<?xml version="1.0" encoding="utf-8"?>
<!-- Generator: Adobe Illustrator 16.0.5, SVG Export Plug-In . SVG Version: 6.00 Build 0)  -->
<!DOCTYPE svg PUBLIC "-//W3C//DTD SVG 1.1//EN" "http://www.w3.org/Graphics/SVG/1.1/DTD/svg11.dtd">
<svg version="1.1"
	 id="Layer_1" sodipodi:docname="Extension.svg" inkscape:version="0.91 r13725" xmlns:dc="http://purl.org/dc/elements/1.1/" xmlns:cc="http://creativecommons.org/ns#" xmlns:rdf="http://www.w3.org/1999/02/22-rdf-syntax-ns#" xmlns:svg="http://www.w3.org/2000/svg" xmlns:sodipodi="http://sodipodi.sourceforge.net/DTD/sodipodi-0.dtd" xmlns:inkscape="http://www.inkscape.org/namespaces/inkscape"
	 xmlns="http://www.w3.org/2000/svg" xmlns:xlink="http://www.w3.org/1999/xlink" x="0px" y="0px" width="50px" height="50px"
	 viewBox="0 0 50 50" enable-background="new 0 0 50 50" xml:space="preserve">
<rect id="rect3" x="0.212" y="0.208" fill="#BD1622" width="49.788" height="49.792"/>
<path fill="#FFFFFF" d="M25.001,48.165C12.227,48.165,1.835,37.773,1.835,25c0-12.773,10.392-23.165,23.166-23.165
	c12.773,0,23.164,10.392,23.164,23.165C48.165,37.773,37.774,48.165,25.001,48.165z M25.001,4.763
	C13.841,4.763,4.763,13.841,4.763,25s9.079,20.237,20.238,20.237c11.158,0,20.236-9.078,20.236-20.237S36.159,4.763,25.001,4.763z"
	/>
<path fill="#FFFFFF" d="M16.491,33.116h-2.956V14.884h10.289v2.519h-7.333v5.7h6.872v2.531h-6.872V33.116z"/>
<path fill="#FFFFFF" d="M29.886,26.07l-4.627-6.747h3.342l3.143,4.826l3.168-4.826h3.318l-4.641,6.747l4.877,7.046h-3.318
	l-3.404-5.163l-3.393,5.163h-3.316L29.886,26.07z"/>
</svg>
